# xmcd
#
# Track frame offsets:
#	150
#	6496
#	18047
#	29783
#	44519
#	57149
#	73960
#	93957
#	103147
#	115346
#	140508
#	149632
#	165367
#
# Disc length: 2396 seconds
#
# Revision: 0
# Processed by: cddbd v1.5.1PL0 Copyright (c) Steve Scherf et al.
# Submitted via: dBpowerAMP V4.0
#
DISCID=bc095a0d
DTITLE=Merle Haggard - The Fightin' SIde Of Me (Live)
DYEAR=1970
DGENRE=Country
TTITLE0=Introduction by Carlton Haney
TTITLE1=Pride In What I Am
TTITLE2=Corrine, Corrina
TTITLE3=Every Fool Has A Rainbow
TTITLE4=T. B. Blues
TTITLE5=When Did Right Become Wrong
TTITLE6=Philadelphia Lawyer (vocals by Bonnie Owens)
TTITLE7=Stealin' Corn
TTITLE8=Harold's Super Service
TTITLE9=Medley: Impersonations
TTITLE10=Today I Started Loving You Again
TTITLE11=Oke From Muskogee
TTITLE12=The Fightin' Side Of Me
EXTD=by Sound_man73
EXTT0=
EXTT1=
EXTT2=
EXTT3=
EXTT4=
EXTT5=
EXTT6=
EXTT7=
EXTT8=
EXTT9=
EXTT10=
EXTT11=
EXTT12=
PLAYORDER=
